<?xml version="1.0" encoding="utf-8"?>
<!-- Generator: Adobe Illustrator 28.0.0, SVG Export Plug-In . SVG Version: 6.00 Build 0)  -->
<svg version="1.1" xmlns="http://www.w3.org/2000/svg" xmlns:xlink="http://www.w3.org/1999/xlink" x="0px" y="0px"
	 viewBox="0 0 50 54" style="enable-background:new 0 0 50 54;" xml:space="preserve">
<style type="text/css">
	.st0{display:none;}
</style>
<g id="Слой_1">
	<path d="M6.57,20.53c-0.81,0-1.57,0.02-2.32,0c-1.12-0.03-1.72-0.6-1.73-1.71c-0.02-2.29-0.02-4.57,0-6.86
		c0.01-1.04,0.63-1.63,1.69-1.66c0.89-0.02,1.77-0.01,2.71-0.01c0.61-1.77,1.21-3.51,1.81-5.25c0.54-1.56,0.84-1.78,2.47-1.79
		c5.4,0,10.79,0,16.19,0c0.34,0,0.69,0,1.08,0c0.03-0.35,0.05-0.63,0.09-0.9c0.13-0.91,0.67-1.42,1.59-1.45
		c1.08-0.03,2.16-0.01,3.24-0.01c1.82,0,2.2,0.36,2.35,2.36c1.05,0,2.11,0,3.17,0c1.45,0,1.84,0.28,2.3,1.63
		c0.54,1.56,1.09,3.11,1.59,4.68c0.17,0.53,0.4,0.79,1,0.74c0.63-0.06,1.27-0.03,1.9-0.01c1.17,0.04,1.77,0.61,1.78,1.77
		c0.02,2.22,0.02,4.44,0,6.67c-0.01,1.17-0.59,1.75-1.76,1.79c-0.75,0.02-1.51,0-2.34,0c-0.22,2.24-0.43,4.38-0.63,6.52
		c-0.77,8.12-1.54,16.23-2.32,24.35c-0.12,1.24-0.68,1.69-2.07,1.69c-5.84-0.01-11.68-0.03-17.52-0.03c-3.08,0-6.16,0.03-9.24,0.03
		c-1.46,0-1.93-0.43-2.07-1.88C8.6,41.35,7.66,31.5,6.72,21.64C6.68,21.3,6.63,20.96,6.57,20.53z M40.17,20.6
		c-10.19,0-20.25,0-30.36,0c0.94,9.82,1.87,19.54,2.79,29.24c8.33,0,16.51,0,24.78,0C38.32,40.09,39.24,30.37,40.17,20.6z
		 M5.75,17.29c12.88,0,25.68,0,38.5,0c0-1.28,0-2.47,0-3.73c-12.85,0-25.65,0-38.5,0C5.75,14.81,5.75,16,5.75,17.29z M10.31,10.28
		c9.85,0,19.55,0,29.36,0c-0.35-1.04-0.73-1.98-0.98-2.95c-0.18-0.68-0.52-0.86-1.2-0.86c-5.55,0.03-11.1,0.02-16.65,0.02
		c-2.82,0-5.65-0.01-8.47,0.02c-0.3,0-0.77,0.21-0.87,0.45C11.05,7.99,10.72,9.08,10.31,10.28z"/>
	<path d="M114.6,31.61c-0.32,0.87-0.62,1.66-0.85,2.29c-1.34-0.17-2.56-0.38-3.79-0.46c-0.71-0.05-1.43,0.16-1.6,1.02
		c-0.18,0.89,0.44,1.34,1.13,1.64c1.07,0.47,2.18,0.83,3.24,1.33c2.05,0.97,2.83,2.47,2.53,4.69c-0.26,1.87-1.49,3.08-3.62,3.45
		c-2.36,0.41-4.65,0.21-6.92-0.91c0.29-0.85,0.58-1.66,0.84-2.4c1.27,0.24,2.46,0.47,3.65,0.68c0.24,0.04,0.51,0.02,0.76,0
		c0.84-0.07,1.71-0.17,1.92-1.19c0.2-1.01-0.51-1.5-1.29-1.84c-0.84-0.37-1.71-0.66-2.55-1.01c-2.25-0.93-3.27-2.38-3.08-4.35
		c0.2-2.05,1.56-3.43,3.94-3.84C110.84,30.38,112.73,30.62,114.6,31.61z"/>
</g>
<g id="Слой_2">
	<rect x="120" y="-14" class="st0" width="80" height="80"/>
	<path class="st0" d="M6.55,14.74c-0.8,0-1.52,0.01-2.24,0c-1.26-0.03-1.77-0.52-1.78-1.77C2.51,10.78,2.5,8.59,2.5,6.41
		c0-1.23,0.56-1.75,1.79-1.78c0.85-0.02,1.95,0.28,2.47-0.14C7.38,4,7.49,2.89,7.8,2.04c0.37-1.03,0.71-2.06,1.07-3.09
		c0.39-1.11,0.78-1.37,2.05-1.37c5.55,0,11.1,0,16.66,0c0.3,0,0.6,0,0.85,0c0.08-0.11,0.14-0.15,0.15-0.2
		c0.2-1.93,0.48-2.19,2.44-2.19c0.76,0,1.52,0,2.28,0c1.94,0,2.27,0.32,2.39,2.39c1.12,0,2.26,0,3.39,0
		c1.31,0.01,1.65,0.25,2.07,1.46c0.58,1.66,1.17,3.32,1.72,4.99c0.15,0.45,0.35,0.64,0.83,0.62c0.76-0.03,1.52-0.02,2.27,0.03
		c0.96,0.06,1.5,0.61,1.51,1.58c0.02,2.28,0.02,4.55,0,6.83c-0.01,1.07-0.56,1.61-1.64,1.66c-0.78,0.03-1.57,0.01-2.44,0.01
		c-0.16,1.87-0.31,3.67-0.46,5.48c-0.67,8.16-1.34,16.32-2.01,24.48c-0.18,2.15-0.34,4.29-0.52,6.44c-0.1,1.19-0.62,1.68-1.82,1.68
		c-9.07,0.01-18.14,0.01-27.21,0c-1.2,0-1.7-0.48-1.8-1.7c-0.66-7.98-1.32-15.96-1.97-23.94c-0.32-3.96-0.64-7.92-0.96-11.88
		C6.64,15.15,6.6,15,6.55,14.74z M37.48,49.72c0.95-11.66,1.9-23.27,2.85-34.92c-10.28,0-20.46,0-30.67,0
		c0.96,11.67,1.9,23.27,2.86,34.92C20.86,49.72,29.12,49.72,37.48,49.72z M5.58,11.64c13.01,0,25.89,0,38.78,0c0-1.35,0-2.63,0-3.92
		c-12.96,0-25.83,0-38.78,0C5.58,9.06,5.58,10.32,5.58,11.64z M39.83,4.6c-0.39-1.14-0.78-2.18-1.1-3.25
		c-0.16-0.56-0.43-0.75-1.02-0.74c-2.39,0.04-4.79,0.02-7.18,0.02c-6.06,0-12.12-0.01-18.19,0.02c-0.32,0-0.84,0.17-0.94,0.4
		c-0.47,1.14-0.83,2.33-1.26,3.57C20.08,4.6,29.91,4.6,39.83,4.6z"/>
	<path class="st0" d="M24.71,36.1c0.32-0.73,0.58-1.35,0.87-1.98c0.84-1.85,1.71-3.68,2.53-5.54c0.23-0.52,0.54-0.7,1.11-0.71
		c2.18-0.01,2.22-0.04,2.39,2.09c0.29,3.56,0.52,7.13,0.78,10.7c0.03,0.36,0,0.72,0,1.12c-1,0-1.96,0-2.97,0
		c-0.14-2.93-0.28-5.83-0.42-8.72c-0.08-0.02-0.15-0.03-0.23-0.05c-0.32,0.72-0.64,1.44-0.95,2.16C27.19,36.6,26.54,38,26,39.45
		c-0.33,0.9-1.01,0.55-1.58,0.61c-0.52,0.06-0.94,0.02-1.2-0.63c-0.88-2.19-1.84-4.34-2.98-6.49c-0.14,2.94-0.28,5.88-0.42,8.86
		c-0.99,0-1.92,0-2.98,0c0-0.29-0.02-0.58,0-0.86c0.31-4.05,0.64-8.1,0.92-12.15c0.05-0.68,0.27-0.92,0.99-0.92
		c2.2,0.03,2.19,0,3.1,1.99C22.77,31.9,23.71,33.92,24.71,36.1z"/>
	<path class="st0" d="M29.9-13.46c0.02-0.45,0.02-0.74,0.05-1.03c0.09-0.99,0.61-1.57,1.59-1.6c1.48-0.05,2.97-0.05,4.45-0.01
		c1.01,0.03,1.56,0.68,1.59,1.7c0.01,0.26,0,0.51,0,0.94c1.3,0,2.55,0,3.79,0c1.62,0.01,1.92,0.23,2.45,1.77
		c0.6,1.74,1.23,3.47,1.77,5.22c0.22,0.71,0.58,0.97,1.31,0.9c0.7-0.07,1.42-0.03,2.13-0.01c1.18,0.03,1.76,0.61,1.77,1.82
		c0.01,2.49,0.02,4.97,0,7.46c-0.01,1.21-0.59,1.78-1.78,1.8c-0.87,0.02-1.74,0-2.73,0c-0.1,1.23-0.21,2.4-0.29,3.58
		c-1.02,14-2.03,28-3.04,42c-0.14,1.95-0.47,2.34-2.4,2.34c-10.01,0.03-20.01,0.03-30.02,0.03c-1.19,0-1.73-0.55-1.82-1.79
		C8.21,44.73,7.71,37.81,7.2,30.89C6.61,22.68,6.02,14.48,5.44,6.27c-0.04-0.56-0.2-0.82-0.8-0.78C3.97,5.53,3.29,5.51,2.61,5.49
		C1.46,5.47,0.84,4.91,0.83,3.78c-0.02-2.55-0.02-5.1,0-7.65c0.01-1.08,0.62-1.66,1.69-1.71c0.13-0.01,0.26,0,0.39,0
		C3.83-5.62,5-5.33,5.62-5.78c0.63-0.46,0.72-1.65,1.03-2.53c0.42-1.19,0.83-2.38,1.24-3.56c0.45-1.29,0.83-1.57,2.19-1.57
		c6.2,0,12.39,0,18.59,0C29.06-13.46,29.44-13.46,29.9-13.46z M8.62,5.55c1.08,14.9,2.16,29.75,3.24,44.61c9.37,0,18.59,0,27.93,0
		c1.08-14.88,2.16-29.73,3.23-44.61C31.49,5.55,20.11,5.55,8.62,5.55z M47.51-2.29c-14.48,0-28.92,0-43.37,0c0,1.54,0,3.01,0,4.47
		c14.5,0,28.93,0,43.37,0C47.51,0.66,47.51-0.78,47.51-2.29z M42.47-5.6c-0.45-1.33-0.89-2.51-1.25-3.7
		c-0.21-0.7-0.55-0.93-1.3-0.92c-5.97,0.03-11.93,0.02-17.9,0.02c-3.48,0-6.97-0.01-10.45,0.01c-0.31,0-0.82,0.1-0.9,0.3
		c-0.55,1.38-1.01,2.8-1.53,4.3C20.35-5.6,31.34-5.6,42.47-5.6z"/>
	<path class="st0" d="M20.96,20.47c1.06,0,2.08,0,3.21,0c0,3.93,0,7.85,0,11.9c2.24,0,4.38,0,6.57,0c0,1.01,0,1.9,0,2.85
		c-3.26,0-6.47,0-9.78,0C20.96,30.33,20.96,25.43,20.96,20.47z"/>
</g>
</svg>
