<?xml version="1.0" encoding="utf-8"?>
<!-- Generator: Adobe Illustrator 28.0.0, SVG Export Plug-In . SVG Version: 6.00 Build 0)  -->
<svg version="1.1" id="Слой_1" xmlns="http://www.w3.org/2000/svg" xmlns:xlink="http://www.w3.org/1999/xlink" x="0px" y="0px"
	 viewBox="0 0 168 170" style="enable-background:new 0 0 168 170;" xml:space="preserve">
<style type="text/css">
	.st0{fill:#161616;stroke:#000000;stroke-width:0.5;stroke-miterlimit:10;}
	.st1{fill:#161616;}
</style>
<g>
	<path class="st0" d="M63.09,164.39h-4.84v-52.45l-3.18-1.88L21.26,166l-3.7-4.06l32.81-54.64L27.25,93.34l2.14-4.84l28.86,17.29
		V89.85h4.84v16.04l28.86-17.4l2.14,4.84L70.95,107.3l32.81,54.64l-3.7,4.06l-33.8-55.94l-3.18,1.98V164.39z"/>
</g>
<path class="st1" d="M84.88,48.24c0.52,1.51,0.94,3.07,1.25,4.69c0.31,1.61,0.47,3.33,0.47,5.21c0,3.96-0.73,7.6-2.14,10.99
	c-1.41,3.39-3.33,6.25-5.73,8.7c-2.4,2.45-5.16,4.32-8.33,5.68c-3.13,1.35-6.41,2.03-9.84,2.03H34.93V48.24v-11.3H26.7v-6.25h8.23
	V10.9h25.63c2.55,0,4.84,0.73,6.82,2.24s3.44,3.33,4.43,5.47c0.94,2.19,1.3,4.48,1.04,6.98c-0.26,2.5-1.3,4.74-3.18,6.77
	c3.18,1.25,6.15,3.23,8.91,5.89C81.34,41,83.42,44.29,84.88,48.24z M67.06,24.02c0-0.68-0.16-1.41-0.42-2.24s-0.68-1.56-1.2-2.24
	c-0.52-0.68-1.2-1.2-2.03-1.67c-0.83-0.47-1.82-0.68-2.92-0.68H40.87v13.54h20.31c1.67,0,3.07-0.68,4.22-2.03
	C66.49,27.36,67.06,25.79,67.06,24.02z M78.26,48.24c-1.67-3.39-4.11-6.09-7.34-8.18c-3.23-2.08-7.14-3.13-11.67-3.13H40.87v11.3
	v30.99h19.69c2.76,0,5.36-0.52,7.81-1.61c2.45-1.09,4.58-2.6,6.41-4.48c1.82-1.93,3.28-4.17,4.38-6.72
	c1.09-2.55,1.61-5.31,1.61-8.23C80.71,54.7,79.93,51.42,78.26,48.24z"/>
</svg>
