<?xml version="1.0" encoding="utf-8"?>
<!-- Generator: Adobe Illustrator 28.0.0, SVG Export Plug-In . SVG Version: 6.00 Build 0)  -->
<svg version="1.1" id="Слой_1" xmlns="http://www.w3.org/2000/svg" xmlns:xlink="http://www.w3.org/1999/xlink" x="0px" y="0px"
	 viewBox="0 0 200 200" style="enable-background:new 0 0 200 200;" xml:space="preserve">
<style type="text/css">
	.st0{fill-rule:evenodd;clip-rule:evenodd;fill:#E1C8B7;}
	.st1{fill-rule:evenodd;clip-rule:evenodd;fill:#6EE7B7;}
	.st2{fill-rule:evenodd;clip-rule:evenodd;fill:#D1FAE5;}
	.st3{fill-rule:evenodd;clip-rule:evenodd;fill:#10B981;}
	.st4{fill-rule:evenodd;clip-rule:evenodd;fill:#098C59;}
	.st5{fill-rule:evenodd;clip-rule:evenodd;fill:#FFFFFF;}
	.st6{fill-rule:evenodd;clip-rule:evenodd;fill:#5A3535;}
</style>
<g>
	
		<ellipse transform="matrix(0.031 -0.9995 0.9995 0.031 -75.6521 272.679)" class="st0" cx="102.81" cy="175.36" rx="19.12" ry="90.04"/>
	<g>
		<path class="st1" d="M161.07,38.27c1.5,0.72-0.45,3.85-0.61,5.11c-4.58,14.13-9.8,28.06-13.36,42.5
			c-2.37,8.77-3.93,17.71-5.8,26.6c-3.41,14.79-5.76,29.79-7.6,44.85c-0.76,5.95-1.43,11.93-1.34,17.94
			c0.05,4.52,0.32,9.03,0.41,13.54c0.22,0,0.44-0.01,0.66-0.01c0.97-0.07,1.54,1.26,0.83,1.92c-1.23,0.74-2.94,0.3-4.33,0.42
			c-21.8-0.77-43.51-3.96-64.6-9.52c-0.96-0.22-1.93-0.38-2.9-0.58c-0.47-0.21-0.73-0.51-0.83-0.83
			c-13.28-3.14-26.59-6.14-39.74-9.75c-0.56,0.63-1.87,0.57-2.01-0.54c-1.76-13.71-1.51-27.71,0.99-41.31
			c2.33-11.12,5.41-22.08,8.19-33.1c3.71-12.36,8.44-24.42,13.27-36.37c2.67-6.68,5.33-13.36,8.73-19.71
			c1.32-2.04,2.06-5.41,4.11-6.67c0.26-0.4,0.5-0.87,0.95-1.08c0.36-0.68,0.27-1.72,1.08-2.05c0.12-0.05,0.24-0.08,0.36-0.09
			c0.23-0.27,0.59-0.42,1.05-0.31c14.34,1.51,28.79,1.68,43.12,3.21c1.51,0.19,3.03,0.36,4.54,0.52c0.21-0.22,0.51-0.35,0.91-0.3
			c14.84,0.94,29.72,1.55,44.49,3.38c2.88,0.27,5.77,0.54,8.6,1.14C160.74,37.26,161.07,37.77,161.07,38.27z"/>
		<path class="st2" d="M134.64,182.58c0.02,0.88,0.04,1.76,0.05,2.64c-0.07,0.06-0.14,0.12-0.21,0.18c0.32,1.15,0.15,2.43-0.65,3.4
			c-2.12,1.91-4.99,2.38-7.9,2.38c-0.17,0-0.33,0-0.5,0c-0.04-0.35-0.21-0.69-0.5-0.96c-0.59-0.55-1.48-0.48-2.23-0.4
			c-0.45,0.05-0.91,0.11-1.36,0.18c-0.78,0.12-1.56,0.24-2.34,0.36c-1.38,0.19-2.76,0.33-4.14,0.51c-0.44,0.06-0.87,0.12-1.3,0.19
			c-0.03-0.01-0.07-0.02-0.1-0.03c-0.07-0.09-0.15-0.18-0.23-0.25c-0.32-0.27-0.7-0.36-1.11-0.35c-0.4,0.01-0.8,0.23-1.05,0.53
			c-0.02,0.02-0.03,0.04-0.05,0.06c-16.81-2.67-33.31-7.02-49.99-10.42c-10.06-1.88-20.1-3.86-30.02-6.37
			c-3.8-1.16-8.13-1.86-11.33-4.32c-0.03-0.22-0.06-0.43-0.09-0.65c-0.07-0.57-0.13-1.13-0.19-1.7c-0.06-0.58-0.12-1.16-0.19-1.74
			c-0.09-0.85-0.17-1.7-0.26-2.56c-0.01-0.1-0.02-0.2-0.03-0.29c-0.02-0.35-0.05-0.69-0.07-1.04c-0.03-0.48-0.06-0.96-0.09-1.44
			c-0.12-1.92-0.22-3.83-0.34-5.75c5.19-1.49,11.55,1.13,14.49,5.7c6.57-2.96,14.73-1.98,19.27,3.99c6.38-2.41,14.3-1.22,18.89,4.08
			c6.23-3.03,14.07-1.13,17.86,4.77c1.96-1.98,5.32-2.87,7.99-2.82c3.47-0.16,7.57,2.27,9.4,5.53c0.13,0.12,0.27,0.24,0.4,0.37
			c4.95-3.79,12.7-2.38,16.65,2.25c0.82-0.6,1.75-1.09,2.71-1.44c1.01-0.52,2.11-0.82,3.2-0.79c4.25-0.53,6.53,3.27,5.36,5.92v0
			C134.63,182.4,134.63,182.49,134.64,182.58z"/>
		<path class="st2" d="M107.38,87c-4.07-0.04-10.45-4.89-12.21-8.53c-0.35-0.33-0.75-0.65-0.87-1.08c-1.13,0.35-2.33,0.47-3.5,0.32
			c-2.08-0.18-3.97-1.31-5.26-2.89c-0.01,0.21-0.1,0.43-0.28,0.62c-2.97,3.23-7.29,5.34-11.71,5.33c-2.9,0.1-6.29-1.59-6.49-4.79
			c0.14-2.93,1.88-5.58,2.19-8.47c-0.2,0.16-0.46,0.24-0.79,0.19c-9.23-1.27-18.7-2.11-27.88-2.95c-1.08-0.95,0.15-2.25,1.33-1.99
			c6.05,0.33,12.06,1.17,18.08,1.75c2.92,0.33,5.85,0.6,8.75,1.07c0.2,0.03,0.36,0.09,0.49,0.19c-0.02-0.13-0.04-0.26-0.06-0.39
			c-0.23-2.16-0.78-4.5-0.92-6.77c-7.32-1.25-14.76-2.4-22.19-2.58c-0.96,0.08-1.34-0.51-1.27-1.09c0.07-0.64,0.68-1.28,1.66-1.05
			c7.32,0.25,14.61,1.32,21.82,2.56c0.15-1.57,0.62-3.06,1.67-4.41c3.63-4.57,10.85-2.94,14.23,1.14c2.6,2.68,4.37,6.26,4.61,10.01
			c0,0.08,0,0.16,0,0.24c2.06-0.96,4.42-1.23,6.36-0.33c0.86,0.14,1.64,0.51,2.31,1.03c0.98-1.41,3.21-2.99,3.8-3.7
			c2.52-2.17,5.32-4.15,8.5-5.22c4.96-1.6,11.74,0.95,11.36,6.94c-0.05,1.41-0.52,2.67-1.17,3.86c8.42,0.71,16.77,2.01,25.08,3.55
			c1.42,0.57,6.02,0.06,5.89,2.01c-0.07,0.57-0.64,1.01-1.2,0.92c-10.11-1.66-20.17-3.61-30.4-4.39c-0.25,0.02-0.47,0-0.64-0.06
			c-0.83,1.2-1.72,2.38-2.39,3.62c-0.95,1.25-1.41,2.81-1.71,4.44c0.05-0.01,0.11-0.01,0.17-0.01c-0.16,0.74-0.26,1.49-0.26,2.24
			c-0.08,0-0.15,0-0.22,0c-0.54,4.4-0.85,8.67-6.73,8.67C107.47,87,107.42,87,107.38,87L107.38,87z M96.28,76.52
			c0.23,0.19,0.44,0.41,0.59,0.65c0.28,0.25,0.38,0.55,0.35,0.83c0.59,0.61,1.16,1.42,1.56,1.8c4.92,5.17,13.69,8.86,13.24-1.88
			c0.23-3.45,1.78-6.61,3.71-9.41c1.19-1.91,2.87-3.67,3.22-5.96c0.66-4.63-4.52-6.4-8.27-5.37c-2.26,0.64-4.23,2-6.14,3.32
			c-1.66,1.28-3.18,2.68-4.63,4.16c-0.36,0.27-0.63,0.74-0.95,1.11c0.41,0.61,0.73,1.28,0.96,1.97c0.15-0.07,0.31-0.13,0.45-0.2
			c1.42-0.49,6.49-2.65,6.82-0.24c-0.11,1.58-2.06,0.88-3.1,1.27c-1.32,0.2-2.53,0.93-3.78,1.31c0.01,0.38-0.01,0.74-0.06,1.11
			c0.36,0.13,0.69,0.32,0.94,0.51c0.84,0.53,1.62,1.16,2.35,1.82c1,0.96-0.55,2.51-1.52,1.52c-0.76-0.65-1.54-1.32-2.44-1.77
			C98.89,74.48,97.7,75.69,96.28,76.52L96.28,76.52z M70.72,55.13C69.39,60,72.44,64.97,71,69.86c-0.41,2.15-1.86,4.08-1.77,6.3
			c2.07,4.64,9.24,1.97,12.35-0.25c0.75-0.57,1.45-1.21,2.09-1.89c0.33-0.37,0.76-0.42,1.12-0.29c-0.47-0.81-0.79-1.7-0.93-2.61
			c-0.92,0.05-1.87,0.18-2.71,0.59c-0.53,0.86-2.01,0.42-1.96-0.6c0.4-1.92,3.08-1.98,4.7-2.13c0.02-0.13,0.05-0.25,0.09-0.37
			c-0.19-0.06-0.37-0.18-0.52-0.38c-2.31-3.35-5.21-2.34-5.02-4.08c0.17-1.14,1.56-1.06,2.36-0.65c1.58,0.72,3.05,1.75,4.12,3.12
			c0.04-0.05,0.08-0.11,0.12-0.16c0.46-0.64,1.04-1.24,1.7-1.76c-0.27-1.18-0.03-2.95-0.47-3.79c-1.17-3.92-3.99-7.69-7.88-9.17
			c-0.68-0.19-1.41-0.29-2.14-0.29C73.8,51.44,71.35,52.56,70.72,55.13L70.72,55.13z M91.6,75.61c5.85,0.35,9.33-7.29,3.65-10.31
			c-0.4-0.16-0.86-0.15-1.32-0.13c-0.65,0.02-1.29,0.04-1.73-0.44C84.48,65.4,83.61,74.77,91.6,75.61L91.6,75.61z M81.25,71.51
			c0.04-0.08,0.06-0.17,0.07-0.26c0,0,0,0,0,0c0,0,0,0,0,0c0-0.04,0.01-0.09,0.01-0.13C81.32,71.26,81.3,71.39,81.25,71.51z"/>
		<path class="st2" d="M147.1,83.31c-10.88-1.98-21.77-4.12-32.75-5.48c-1.49-0.01-1.32-2.34,0.16-2.14
			c6.53,0.67,12.98,1.98,19.45,3.07c4.49,0.75,8.97,1.52,13.43,2.42C148.76,81.36,148.47,83.53,147.1,83.31z"/>
		<path class="st3" d="M135.15,189.22c-1.2-0.29-1.73-0.86-1.85-1.45c-0.29-0.21-0.48-0.55-0.49-0.93
			c-1.25-25.5,3.19-50.71,8.26-75.59c3.57-22.29,11.59-43.51,18.17-65.02c0.73-2.23,1.6-4.42,2.55-6.56
			c-0.16-0.86,0.88-1.5,1.85-1.38c1.76-0.09,3.52-0.07,5.28-0.04c0.94,0.01,1.88,0.03,2.83,0.03c0.24,0.02,0.51,0.01,0.79,0
			c0.93-0.03,1.94-0.05,2.36,0.89c0.44,3.4,0.05,6.87-0.31,10.32c-0.01,0.01-0.02,0.01-0.03,0.02c-0.16,0.13-0.29,0.28-0.4,0.46
			c-0.75,0.01-1.45,0.63-1.47,1.4c-0.04,1.72-0.08,3.44-0.12,5.16c-0.01,0.53-0.02,1.07-0.03,1.61c-0.18-0.05-0.34-0.15-0.46-0.27
			c-3.26,19.97-6.07,40.03-6.54,60.29c-0.01,0.18-0.02,0.36-0.03,0.54c0.52,0.05,1,0.41,0.99,1.09c-0.12,11.51-0.38,23.05,1.85,34.4
			c0.77,4.53,1.44,8.87,2.5,13.23c0.11,0.47,0.23,0.94,0.34,1.41c1.57,0.14,1.21,2.48,0.82,3.52c-6.15,5.69-14.08,9.14-21.74,12.35
			c-4.65,1.56-9.22,4.54-14.21,4.54C135.75,189.25,135.45,189.24,135.15,189.22z"/>
		<path class="st3" d="M167.73,37.56c0.54,0.24,0.78,0.93,0.55,1.46c-0.05,0.12-0.12,0.22-0.2,0.31c-0.19,0.66-0.32,1.34-0.43,1.87
			c-0.46,2.27-0.79,4.56-1.18,6.85c-0.4,2.35-0.84,4.7-1.27,7.05c-0.42,2.31-0.88,4.61-1.31,6.92c-0.44,2.36-0.84,4.72-1.25,7.08
			c-0.82,4.66-1.71,9.31-2.41,13.99c-0.35,2.33-0.68,4.65-1.04,6.98c-0.35,2.32-0.64,4.66-1,6.98c-0.18,1.16-0.37,2.31-0.55,3.46
			c-0.17,1.15-0.33,2.29-0.49,3.44c-0.32,2.33-0.73,4.66-1.08,6.98c-0.35,2.33-0.64,4.67-0.9,7.01c-0.26,2.35-0.52,4.69-0.76,7.04
			c-0.2,1.95-0.4,3.9-0.62,5.85c-0.22,2.04-0.43,4.08-0.58,6.13c-0.11,1.6-0.2,3.2-0.28,4.8c-0.01,0.23-0.07,0.44-0.19,0.62
			c-0.02,0.77-0.02,1.53-0.03,2.3c0.02,0.07,0.02,0.15,0.02,0.23c-0.01,0.33-0.01,0.66-0.02,0.99c0.02,5.35,0.33,10.69,0.86,16.01
			c1.27,7.35-2.36,8.86-6.92,13.56c-3.5,3.68-7.13,7.56-10.54,11.26c-0.74,0.74-1.32,2.14-2.57,1.87
			c-3.57-1.08-0.42-22.3-0.32-26.27c-0.03-0.31,0.04-0.57,0.17-0.76c0.39-4.18,0.98-8.35,1.56-12.51c1.02-9.48,2.87-18.83,4.64-28.2
			c2.71-15.21,6.34-30.23,10.34-45.15c0.21-1.29,0.37-2.59,0.49-3.91c-0.11-5.68,2.99-10.6,5.19-15.61
			c1.49-4.67,2.89-9.43,4.88-13.9c1.33-2.53,2.36-4.87,5.56-4.05c0.19-0.41,0.5-0.73,0.97-0.8
			C167.28,37.41,167.52,37.46,167.73,37.56z"/>
		<path class="st4" d="M42.31,126.15c-6.55-4.57-0.47-11.87,5.92-7.87C55.18,122.68,48.53,129.75,42.31,126.15z"/>
		<path class="st4" d="M116.01,135.68c-10.08-3.13,1.15-14.7,7.48-6.41C126,133.99,120.19,137.66,116.01,135.68z"/>
		<path class="st5" d="M36.94,71.74c3.8-11.45,8.46-22.8,14.4-33.33c1.44-2.59,2.86-5.18,4.33-7.75c0.49-1.18,1.68-1.69,2.9-1.75
			c7.43-0.53,14.79,1.56,22.14,2.19c4.61-0.34,9.27-0.81,13.92-0.42c0.9,0.13,0.72,1.56-0.21,1.41c-0.37-0.02-0.73-0.04-1.1-0.05
			c-0.03-0.01-0.06-0.01-0.08-0.02c-0.1-0.11-0.22-0.22-0.35-0.3c-0.31-0.21-0.67-0.29-1.03-0.35c0.02,0,0.04,0.01,0.06,0.01
			c-0.03,0-0.06-0.01-0.09-0.01c-0.04-0.01-0.07-0.01-0.11-0.02c0.03,0,0.06,0.01,0.09,0.01c-2.04-0.3-4.14,0.11-6.17,0.35
			c-2.14,0.23-4.28,0.4-6.4,0.76c-1.14,0.19-2.28,0.39-3.4,0.65c-1.05,0.24-2.09,0.51-3.13,0.8c-2.28,0.63-4.51,1.37-6.67,2.34
			c-1.16,0.52-2.29,1.11-3.36,1.8c-1.06,0.68-2.06,1.44-3.03,2.25c-0.92,0.76-1.8,1.57-2.62,2.44c-0.85,0.91-1.61,1.88-2.38,2.85
			c-1.5,1.89-2.92,3.85-4.31,5.82c-1.4,1.98-2.73,3.98-3.96,6.07c-0.32,0.54-0.63,1.09-0.94,1.64c-1.54,2.46-3.16,5.06-4.47,7.59
			c-0.82,1.58-1.6,3.16-2.39,4.75c-0.11,0.5-0.58,0.91-0.99,0.91C37.29,72.37,37.04,72.19,36.94,71.74z"/>
		<path class="st3" d="M82.37,44.48c-1.31,0.13-2.13-1.22-1.47-2.34c-0.04-0.45,0.22-0.89,0.65-1.09c0.24-0.11,0.5-0.17,0.76-0.15
			c0.99-0.69,2.36,0.48,1.62,1.51C84.08,43.34,83.35,44.45,82.37,44.48z"/>
		<path class="st3" d="M126.99,51.03c-1.35-0.7-1.5-3.11,0.06-3.62c0.22-1.04,1.92-1.42,2.58-0.57
			C132.91,47.67,129.41,52.71,126.99,51.03z"/>
	</g>
	<g>
		<path class="st6" d="M132.1,189.92c-2.28-24.73,2.38-49.25,7.16-73.39c4.98-25.3,11.19-50.48,20.21-74.67
			c0.71-1.31,0.93-2.98,1.77-4.12c3.03-0.6,0.35,3.61-0.02,4.86c-13.13,36.13-21.17,74.08-26.49,112.09
			c-0.87,7.84-1.31,15.49-1.29,23.33c0.05,3.88,0.11,7.77,0.54,11.64C134.17,190.84,132.26,191.18,132.1,189.92z"/>
		<path class="st6" d="M160.87,38.58c-6.25-1.72-13.05-1.41-19.46-2.61c-9.91-1.79-19.99-1.73-30-2.47
			c-17.28-1-34.52-2.52-51.8-3.47c-1.07-0.12-2.22,0.04-3.23-0.39c-1.14-0.98,0.09-2.17,1.35-1.63c24.17,1.37,48.24,3.53,72.41,4.61
			c9.63,1.02,19.2,2.55,28.85,3.47C163.9,36.34,162.95,40.1,160.87,38.58z"/>
		<path class="st6" d="M18.33,167.83C14.21,120.93,32.88,76,52.41,34.39c1.08-1.5,3.11-6.58,4.84-6.39
			c0.64,0.18,0.94,0.98,0.52,1.51c-1.82,2.2-3.13,4.78-4.47,7.3c-13.27,29.11-26.4,58.83-31.36,90.66
			c-1.62,11.22-2.77,22.6-2.16,33.94c-0.26,1.56,1.31,7.18-0.37,7.24C18.9,168.71,18.38,168.35,18.33,167.83z"/>
		<path class="st6" d="M126.26,191.73c-21.7-0.42-43.15-4.14-64.1-9.65c-11.87-2.98-23.85-5.49-35.62-8.85
			c-2.67-1.09-7.25-1.23-8.21-4.38c-0.44-1.09,0.85-2.33,1.71-1.23c0.31,0.4-0.04,1.01,0.4,1.32c11.24,4.82,23.7,6.46,35.48,9.68
			c23.76,6.19,47.96,11.16,72.6,11.25c1.32,0.33,4.51-1.01,4.92,0.51c0.1,0.5-0.23,1.04-0.75,1.12
			C130.57,191.85,128.4,191.77,126.26,191.73z"/>
		<path class="st6" d="M174.86,39.21c-3.84-0.26-7.71-0.12-11.55-0.08c-1.09,0.19-3.33-0.1-2.23-1.65c3.79-0.7,8.07-0.17,12.02-0.28
			c0.98,0.1,2.91-0.29,2.84,1.19C175.86,38.91,175.36,39.28,174.86,39.21z"/>
		<path class="st6" d="M171.79,172.88c-6.91-21.08-6.81-43.61-6.12-65.55c0.9-22.54,5.81-44.71,8.51-67.08
			c0.29-1.15-0.4-3.36,1.53-2.69c1.36,1.37-0.28,5.18-0.25,7.06c-2.13,16.11-4.78,32.14-6.87,48.25
			c-1.48,13.6-1.43,27.32-1.16,40.97c0.42,10.92,1.64,21.94,4.41,32.51c0.4,2.2,1.58,4.36,1.7,6.53
			C173.26,173.62,172.07,173.66,171.79,172.88z"/>
		<path class="st6" d="M133.15,191.34c-0.48-0.2-0.71-0.77-0.51-1.25c0.36-0.85,1.37-0.45,2.07-0.71c5.22-1.4,10.28-3.43,15.23-5.58
			c5.49-2.45,10.78-5.34,15.99-8.35c1.96-1.15,3.88-2.36,5.79-3.59c0.44-0.28,1.05-0.09,1.3,0.34c1.21,1.56-8.38,5.87-9.76,6.96
			c-7.05,3.99-14.39,7.47-22.04,10.15C138.61,190.09,135.91,191.6,133.15,191.34z"/>
		<path class="st6" d="M152.8,166.18c-2.56-26.93,1.83-54.18,6.37-80.76c2.2-14.19,4.16-28.43,6.94-42.52
			c0.21-1.23,0.55-2.45,0.59-3.71c-0.02-1.19,1.92-1.26,1.9,0c0,0.96-0.22,1.92-0.4,2.86c-2.89,14.5-4.91,29.16-7.17,43.77
			c-2.54,15.8-5.57,31.59-6.45,47.59c-0.55,8.11-0.64,16.21-0.46,24.32c0.06,2.41,0.13,4.83,0.26,7.24
			C154.72,165.94,153.63,166.99,152.8,166.18z"/>
		<path class="st6" d="M132.76,189.85c-0.01-0.52,0.4-0.83,0.73-1.08c5.05-4.54,9.17-9.97,13.63-15.07
			c1.22-0.92,5.04-7.19,6.18-5.88c1.92,0.88-6.51,8.6-7.37,10.2C144.6,179.15,133.27,194.4,132.76,189.85z"/>
		<path class="st6" d="M172.23,172.68c-1.7-0.43-23.82-4.71-18.16-7.52c3.79,2.29,8.31,3.15,12.6,4.32
			c2.01,0.52,4.05,0.91,6.07,1.36C173.92,171.14,173.42,173.02,172.23,172.68z"/>
		<path class="st6" d="M151.99,169.03c-1.07-0.96,0.51-2.01,0.99-2.85c0.1-0.42,0.48-0.74,0.93-0.74c1.15,0.04,1.14,1.44,0.45,2.08
			C153.74,168.19,153.11,169.79,151.99,169.03z"/>
		<path class="st6" d="M80.18,45.16c-4.52-3.53,3.57-8.77,4.25-5.31C87.91,41.4,83.94,48.06,80.18,45.16L80.18,45.16z M82.37,43.94
			c1.51-0.29,1.57-2.07,1.13-3.22c-1.39-0.23-3.25,1.16-2.57,2.58C81.27,43.71,81.83,43.95,82.37,43.94z"/>
		<path class="st6" d="M128.57,52.7c-7.95-1.22-0.94-9.91,1.73-6.66C133.63,45.32,133,53.38,128.57,52.7L128.57,52.7z M129.03,50.8
			c1.68-0.19,1.87-2.55,0.89-3.62c-0.28,0.2-0.64,0.19-0.95,0.05c-0.99,0.21-1.98,1.09-2.21,2.09c0-0.02,0.01-0.04,0.01-0.06
			c0,0,0,0,0.01-0.06C126.67,50.33,128.07,50.9,129.03,50.8z"/>
		<path class="st6" d="M128.77,46.56c-1.6-0.41,0.35-5.12,0.3-6.51c1.05-6.16,2.19-12.37,2.08-18.64
			c-1.78-20.21-21.71-9.75-30.87-1.06c-4.37,3.73-8.46,8.05-11.71,12.76c-1.53,2.35-3.06,4.74-4.25,7.28
			c-0.29,1.18-2.18,0.7-1.84-0.49c6.15-12.72,16.99-23.31,29.48-29.81c15.58-7.35,23.25,3.88,20.7,18.8
			c-0.4,3.92-1.07,7.8-1.76,11.67C130.36,41.89,130.66,46.97,128.77,46.56z"/>
		<path class="st6" d="M142.98,35.05c-0.63-0.27-0.61-1.08-0.32-1.56c0.6-1.48,1.14-2.99,1.55-4.53
			c2.37-8.26-0.68-18.55-10.76-18.22c-5.91,0.32-11.21,3.55-16.24,6.41c-5.33,3.13-10.22,6.98-14.79,11.13
			c-1.07,1.24-2.24,2.38-3.37,3.56c-0.17,0.31-0.5,0.51-0.88,0.49c-4.22-0.61,9.14-10.52,10.26-11.57
			c9.27-6.27,24.17-17.79,34.62-8.25c4.61,4.79,4.45,12.48,2.56,18.46C144.97,32.12,144.78,35.62,142.98,35.05L142.98,35.05z
			 M99.08,31.78c0.05-0.09,0.08-0.18,0.09-0.28C99.16,31.6,99.13,31.7,99.08,31.78z"/>
		<path class="st6" d="M60.67,110.05c-4.77-0.65-9.55-1.2-14.33-1.59c-1.23,0.11-1.39-1.82-0.16-1.9c1.78-0.03,3.62,0.32,5.33,0.49
			c-0.05-0.01-0.08-0.01-0.13-0.01c3.21,0.4,6.45,0.59,9.65,1.14C62.24,108.4,61.87,110.29,60.67,110.05z"/>
		<path class="st6" d="M57.2,112.71c-1.6-0.56-3.55-2.34-2.84-4.17c0.62-0.93,1.95-0.23,1.78,0.8c0.62-0.56,1.48-0.2,2.22-0.25
			c0.92,0.05,1.82-0.33,2.73-0.25C63.96,110.07,59.29,113.95,57.2,112.71z"/>
		<path class="st6" d="M122,118.92c-1.66-0.25-4.12-1.29-4.28-3.18c-1.65-0.2-3.31-0.42-4.96-0.63c-1.23-0.42-4.7,0.46-4.74-1.27
			c0.19-1.73,3.95-0.5,5.19-0.59c3.4,0.44,6.8,0.91,10.22,1.12C130.2,113.82,126.06,119.21,122,118.92z"/>
		<path class="st6" d="M85.68,127.62c-1.91-1.07-4.06-1.6-6.24-1.51c-1.36-0.3-3.99,1.49-4.56,0.05c-0.36-2.66,7.33-2.03,8.95-1.39
			c1.05,0.52,3.61,0.8,3.13,2.42C86.73,127.63,86.13,127.86,85.68,127.62z"/>
		<path class="st6" d="M50.25,88.82c-0.66-2.26,4.68-2.3,6.14-2.55c1.23-0.11,1.39,1.81,0.16,1.9c-0.71,0.05-1.42,0.13-2.12,0.23
			C53.13,88.29,50.93,90.1,50.25,88.82z"/>
		<path class="st6" d="M121.08,95.66c-1.2,0.08-9.9-1.2-6.82-3.26c1.77-0.04,3.44,1.18,5.26,1.25c0.55,0.06,1.1,0.11,1.66,0.11
			C122.41,93.8,122.31,95.73,121.08,95.66z"/>
		<path class="st6" d="M14.18,136.6c-1.01-1.63,2.41-2.86,3.29-3.93c-7.04-3.07-13.74-11.45-10.26-19.3
			c2.81-6.07,9.48-9.5,16.06-8.54c0.84,0.1,2.3-0.07,2.28,1.13c-0.03,0.52-0.48,0.93-1,0.9c-1.35-0.18-2.73-0.22-4.09-0.21
			c-4.97-0.08-9.5,3.25-11.57,7.66c-2.04,4.52,0.48,9.54,3.75,12.75c2.78,3.66,9.87,4.06,6.12,7.01
			C17.55,134.65,15.4,137.75,14.18,136.6z"/>
		<path class="st6" d="M15.72,138.54c-1.24-1.15,0.99-2.86,1.2-4.18c0.52-0.87,0.19-2.85,1.71-2.49c1.27,0.55,0.38,2.19,0.08,3.13
			C18.03,136.09,17.44,139.28,15.72,138.54L15.72,138.54z M18.84,133.58c0.08-0.04,0.14-0.11,0.21-0.17c0,0,0,0,0,0
			c0.01-0.02,0.02-0.03,0.03-0.05C19.01,133.45,18.93,133.52,18.84,133.58z"/>
		<path class="st6" d="M156.73,152.93c-2.61-1.68-5.17-6.7-1.72-8.75c3.44-1.2,6.69-2.89,9.55-5.17
			c11.91-9.14,6.45-17.14-6.02-20.59c-1.15-0.36-2.44-0.45-3.5-1.02c-0.6-0.49-0.33-1.54,0.45-1.67c0.54-0.09,1.05,0.3,1.56,0.36
			c22.23,5.16,20.02,20.02,1.4,28.8c-0.93,0.45-2.03,0.62-2.88,1.2c-0.89,1.49,0.35,3.43,1.37,4.55c0.56,0.56,1.71,1.07,1.11,2.02
			C157.77,153.08,157.16,153.23,156.73,152.93z"/>
		<path class="st6" d="M158.63,151.02c-1.75-1.21-3.69-2.9-5.06-4.45c0.47-3.4,4.09,1.69,5.31,2.33
			C160.64,149.59,160.4,151.64,158.63,151.02z"/>
		<path class="st6" d="M160.7,148.63c-1.3-0.48-8.07-1.38-6.32-3.55c0.72-0.76,4.08,1.33,5.45,1.39c0.79,0.23,2.18,0.23,1.99,1.4
			C161.72,148.39,161.2,148.73,160.7,148.63z"/>
		<path class="st6" d="M32.94,174.74c-1.43-1.21-4.85-11.55-2.17-11.87c0.52,0,0.95,0.43,0.95,0.95c0.02,2.84,0.65,5.71,1.8,8.31
			c0.26,0.51,0.56,1,0.93,1.45C35.21,174.54,33.69,175.72,32.94,174.74z"/>
		<path class="st6" d="M41.56,175.93c-0.93-1.14-4.1-6.92-1.59-7.35c0.84,0,0.98,0.83,1.02,1.49c0.25,1.1,0.62,2.18,1.11,3.2
			c0.28,0.53,0.6,1.04,0.97,1.5C43.83,175.73,42.31,176.91,41.56,175.93z"/>
		<path class="st6" d="M172.75,96.9c-0.52-0.06-0.88-0.56-0.81-1.07c0.34-4.05,0.68-8.11,1.26-12.14c0.28-2.66,1.1-5.32,1.12-7.97
			c0.13-1.05,1.72-1.11,1.93-0.07c-0.4,5.18-1.73,10.33-2,15.56C173.81,92.54,174.61,97.03,172.75,96.9z"/>
		<path class="st6" d="M171.19,106.04c0.12-0.94-0.37-2.71,1.01-2.8c1.44,0.1,0.8,1.85,0.89,2.8
			C173.1,107.27,171.18,107.27,171.19,106.04z"/>
		<path class="st6" d="M86.02,25.37c-0.4-1.44,13.16-16.53,11.08-9.85c-2.07,1.7-3.88,3.5-5.69,5.45c-1.13,1.32-2.18,2.71-3.18,4.13
			C87.85,26.11,86.35,26.76,86.02,25.37z"/>
		<path class="st6" d="M101.36,12.55c-1.09-1.66,1.95-2.59,3.1-3.08c1.18-0.34,1.7,1.51,0.51,1.84
			C103.67,11.4,102.59,13.46,101.36,12.55z"/>
		<path class="st6" d="M29.77,78.27c-1.85-0.46,1.14-5.65,1.31-7.07c0.78-1.66,3.97-13.11,6.02-11.81c0.45,0.25,0.6,0.86,0.34,1.3
			c-1.8,3.37-3.16,6.96-4.38,10.58C32.29,72.55,31.36,78.91,29.77,78.27z"/>
	</g>
</g>
</svg>
