<?xml version="1.0" encoding="utf-8"?>
<!-- Generator: Adobe Illustrator 26.5.0, SVG Export Plug-In . SVG Version: 6.00 Build 0)  -->
<svg version="1.1" xmlns="http://www.w3.org/2000/svg" xmlns:xlink="http://www.w3.org/1999/xlink" x="0px" y="0px" width="1366px"
	 height="768px" viewBox="0 0 1366 768" style="enable-background:new 0 0 1366 768;" xml:space="preserve">
<style type="text/css">
	.st0{fill:#161616;stroke:#000000;stroke-width:0.5;stroke-miterlimit:10;}
	.st1{fill:#161616;}
</style>
<g id="Layer_1">
	<g>
		<path class="st0" d="M128.9,508.6h-9.3V407.9l-6.1-3.6L48.6,511.7l-7.1-7.8l63-104.9l-44.4-26.8l4.1-9.3l55.4,33.2v-30.6h9.3v30.8
			l55.4-33.4l4.1,9.3L144,399l63,104.9l-7.1,7.8L135,404.3l-6.1,3.8V508.6z"/>
	</g>
	<g>
		<g>
			<path class="st1" d="M306.3,505.7l-10.1,5.3l-45.6-95.8h-28.9l-45.2,95.6l-10.3-5.5l42.9-90.1H171v-12h43.7l21.5-45l21.5,45h43.3
				v12h-37.6L306.3,505.7z M236.1,385l-8.5,18.2h17.3L236.1,385z"/>
			<path class="st1" d="M328.6,415.4h-15.8v-12h15.8v-38.2H404c4.1,0,7.6,0.8,10.5,2.5c3,1.6,5.4,3.7,7.4,6.2c2,2.5,3.4,5.2,4.4,8.1
				c1,2.9,1.4,5.7,1.4,8.4c0,6.8-2.3,12.7-7,17.7c-2.2,2.3-4.7,4.1-7.5,5.4s-5.8,2-8.8,2H340v93.1h-11.4V415.4z M416.2,390.4
				c0-3.3-1.1-6.3-3.4-9c-2.3-2.7-5.2-4.1-8.7-4.1h-64v26.2h64c3.3,0,6.1-1.3,8.5-3.8C415,397.1,416.2,394,416.2,390.4z"/>
			<path class="st1" d="M535.3,365.7h11.4v142.1h-11.4V385.4l-83,122.4h-11.6V365.7h11.6V488L535.3,365.7z"/>
			<path class="st1" d="M581.8,508h-11.6V360.7l67.6,41.4l68-41.4V508h-11.4V381.6L637.9,416l-56.1-34.4V508z"/>
		</g>
	</g>
	<g>
		<path class="st1" d="M775.2,507.9h-11.6V360.7l67.6,41.4l68-41.4v147.3h-11.4V381.6L831.2,416l-56-34.4V507.9z"/>
		<path class="st1" d="M1028.9,508.5h-11.4v-93.1h-52.6L919.3,510l-10.1-5.3l42.8-89.3c-3-0.1-5.9-0.9-8.6-2.4
			c-2.7-1.5-5.1-3.3-7.1-5.6c-2-2.3-3.6-4.9-4.8-7.8c-1.1-2.9-1.7-6-1.7-9.3c0-2.7,0.5-5.4,1.4-8.4c1-2.9,2.4-5.6,4.4-8.1
			c2-2.5,4.4-4.5,7.4-6.2c3-1.6,6.5-2.5,10.5-2.5h75.4V508.5z M941.1,390.3c0,3.7,1.2,6.8,3.6,9.3c2.4,2.5,5.3,3.8,8.7,3.8h64v-26.2
			h-64c-3.7,0-6.6,1.4-8.9,4.1C942.3,384,941.1,387,941.1,390.3z"/>
		<path class="st1" d="M1044.4,436.9c0-9.9,1.8-19.2,5.3-27.8c3.5-8.7,8.4-16.3,14.5-22.8c6.1-6.5,13.3-11.7,21.6-15.4
			c8.2-3.7,17-5.6,26.4-5.6h46.4v12.2h-46.4c-7.5,0-14.6,1.5-21.4,4.5c-6.8,3-12.8,7.1-18.1,12.4c-5.3,5.3-9.4,11.6-12.4,18.9
			c-3,7.3-4.6,15.2-4.6,23.7c0,8.2,1.5,16,4.5,23.2c3,7.2,7,13.5,12.2,18.9c5.1,5.4,11.1,9.6,18,12.7c6.8,3.1,14.1,4.7,21.9,4.7
			h46.4v12h-46.4c-8.4,0-16.6-1.7-24.8-5c-8.2-3.4-15.4-8.1-21.8-14.3c-6.3-6.2-11.5-13.7-15.4-22.5
			C1046.3,457.6,1044.4,447.8,1044.4,436.9z"/>
		<path class="st1" d="M1295.6,436.9c0,9.5-1.7,18.7-5.1,27.5c-3.4,8.8-8.2,16.6-14.3,23.4c-6.1,6.8-13.5,12.2-22,16.2
			c-8.5,4.1-17.9,6.1-28,6.1c-9.5,0-18.5-1.9-26.9-5.8c-8.4-3.9-15.8-9.1-22.1-15.7c-6.3-6.6-11.3-14.3-15-23.2
			c-3.7-8.9-5.5-18.4-5.5-28.5c0-10,1.8-19.5,5.5-28.4c3.7-8.9,8.6-16.7,14.9-23.3c6.3-6.6,13.6-11.8,22-15.7
			c8.4-3.9,17.4-5.8,27.1-5.8c9.2,0,18.1,1.8,26.5,5.5c8.4,3.7,15.8,8.8,22.2,15.4c6.4,6.6,11.5,14.3,15.2,23.3
			C1293.7,416.8,1295.6,426.5,1295.6,436.9z M1284.2,436.9c0-8.9-1.6-17.1-4.8-24.6c-3.2-7.5-7.5-14-12.9-19.4
			c-5.4-5.4-11.6-9.6-18.5-12.6c-7-3-14.2-4.6-21.9-4.6c-8.6,0-16.5,1.7-23.7,5.2c-7.2,3.5-13.3,8.1-18.3,13.8
			c-5.1,5.7-9,12.2-11.9,19.6c-2.9,7.3-4.3,14.9-4.3,22.6c0,8.1,1.5,15.8,4.4,23.2c2.9,7.3,6.9,13.8,12.1,19.5
			c5.1,5.6,11.2,10.1,18.3,13.4c7.1,3.3,14.9,4.9,23.4,4.9c8,0,15.5-1.6,22.6-4.8c7.1-3.2,13.2-7.6,18.4-13.1
			c5.2-5.5,9.3-12,12.4-19.4C1282.6,453.1,1284.2,445.2,1284.2,436.9z"/>
	</g>
	<g>
		<path class="st1" d="M763.1,183h11.2v34l73.9-36.7l4.9,10.8l-53.8,26.8L883,321.1l-8.5,7.8l-85.9-105.6l-14.2,7V326h-11.2V183z"/>
		<path class="st1" d="M1011.8,254.6c0,9.5-1.7,18.7-5.1,27.5c-3.4,8.8-8.2,16.6-14.3,23.4c-6.1,6.8-13.5,12.2-22,16.2
			c-8.5,4.1-17.9,6.1-28,6.1c-9.5,0-18.5-1.9-26.9-5.8c-8.4-3.9-15.8-9.1-22.1-15.7c-6.3-6.6-11.3-14.3-15-23.2
			c-3.7-8.9-5.5-18.4-5.5-28.5c0-10,1.8-19.5,5.5-28.4c3.7-8.9,8.6-16.7,14.9-23.3c6.3-6.6,13.6-11.8,22-15.7
			c8.4-3.9,17.4-5.8,27.1-5.8c9.2,0,18.1,1.8,26.5,5.5c8.4,3.7,15.8,8.8,22.2,15.4c6.4,6.6,11.5,14.3,15.2,23.3
			C1009.9,234.6,1011.8,244.2,1011.8,254.6z M1000.4,254.6c0-8.9-1.6-17.1-4.8-24.6c-3.2-7.5-7.5-14-12.9-19.4
			c-5.4-5.4-11.6-9.6-18.5-12.6c-7-3-14.2-4.6-21.9-4.6c-8.6,0-16.5,1.7-23.7,5.2c-7.2,3.5-13.3,8.1-18.3,13.8
			c-5.1,5.7-9,12.2-11.9,19.6c-2.9,7.3-4.3,14.9-4.3,22.6c0,8.1,1.5,15.8,4.4,23.2c2.9,7.3,6.9,13.8,12.1,19.5
			c5.1,5.6,11.2,10.1,18.3,13.4c7.1,3.3,14.9,4.9,23.4,4.9c8,0,15.5-1.6,22.6-4.8c7.1-3.2,13.2-7.6,18.4-13.1
			c5.2-5.5,9.3-12,12.4-19.4C998.8,270.8,1000.4,263,1000.4,254.6z"/>
		<path class="st1" d="M1179.6,255.7c0,7.9-1.5,15.3-4.6,22.4c-3,7.1-7.3,13.4-12.8,18.8c-5.5,5.4-12.1,9.9-19.8,13.3
			c-7.7,3.4-16.1,5.4-25.4,5.9h-10.6v10.3h-11.6v-10.1h-7.6c-8.7,0-17.1-1.5-25.2-4.4c-8-2.9-15.1-7-21.3-12.3
			c-6.1-5.3-11.1-11.6-14.8-19.1c-3.7-7.5-5.6-15.8-5.6-24.9c0-8.7,1.7-16.8,5.2-24.3c3.5-7.5,8.3-14,14.3-19.5
			c6.1-5.5,13.2-9.8,21.3-13c8.1-3.2,16.8-4.8,26-4.8h7.6v-10.6h11.6v10.6h9.1c8.6,0.4,16.8,2.2,24.6,5.3
			c7.8,3.2,14.6,7.4,20.4,12.8c5.8,5.4,10.5,11.8,13.9,19.2S1179.6,247,1179.6,255.7z M1032.5,255.7c0,7.5,1.5,14.2,4.4,20.3
			c2.9,6.1,6.9,11.3,11.9,15.6c5,4.3,10.8,7.7,17.5,10.1c6.7,2.4,13.6,3.6,21,3.6h7.6V205h-7.6c-7.5,0-14.5,1.3-21.2,3.8
			c-6.7,2.5-12.4,6.1-17.4,10.5c-4.9,4.5-8.9,9.9-11.8,16.1C1034,241.6,1032.5,248.4,1032.5,255.7z M1167.2,255.7
			c0-7.5-1.4-14.2-4.2-20.3c-2.8-6.1-6.6-11.3-11.3-15.7c-4.8-4.4-10.2-7.8-16.4-10.4c-6.2-2.5-12.8-4-19.8-4.4h-9.1v100.3h9.1
			c7.2-0.4,14-1.9,20.3-4.6c6.3-2.7,11.8-6.2,16.4-10.5c4.6-4.4,8.3-9.5,10.9-15.4C1165.9,268.9,1167.2,262.6,1167.2,255.7z"/>
		<path class="st1" d="M1200.3,254.6v-21.7h-15.8v-12h15.8v-38h95.6v12h-84.4v26h84.4v12h-84.4v21.7v59.5h84.4v12.2h-95.6V254.6z"/>
	</g>
	<g>
		<path class="st1" d="M157.3,254.9c1,2.9,1.8,5.9,2.4,9c0.6,3.1,0.9,6.4,0.9,10c0,7.6-1.4,14.6-4.1,21.1c-2.7,6.5-6.4,12-11,16.7
			c-4.6,4.7-9.9,8.3-16,10.9c-6,2.6-12.3,3.9-18.9,3.9H61.4v-71.6v-21.7H45.6v-12h15.8v-38h49.2c4.9,0,9.3,1.4,13.1,4.3
			s6.6,6.4,8.5,10.5c1.8,4.2,2.5,8.6,2,13.4c-0.5,4.8-2.5,9.1-6.1,13c6.1,2.4,11.8,6.2,17.1,11.3C150.5,241,154.5,247.3,157.3,254.9
			z M123.1,208.4c0-1.3-0.3-2.7-0.8-4.3c-0.5-1.6-1.3-3-2.3-4.3c-1-1.3-2.3-2.3-3.9-3.2c-1.6-0.9-3.5-1.3-5.6-1.3H72.8v26h39
			c3.2,0,5.9-1.3,8.1-3.9C122,214.8,123.1,211.8,123.1,208.4z M144.6,254.9c-3.2-6.5-7.9-11.7-14.1-15.7c-6.2-4-13.7-6-22.4-6H72.8
			v21.7v59.5h37.8c5.3,0,10.3-1,15-3.1c4.7-2.1,8.8-5,12.3-8.6c3.5-3.7,6.3-8,8.4-12.9c2.1-4.9,3.1-10.2,3.1-15.8
			C149.3,267.3,147.8,261,144.6,254.9z"/>
		<path class="st1" d="M305.8,323.7l-10.1,5.3l-45.6-95.8h-28.9l-45.2,95.6l-10.3-5.5l42.9-90.1h-38.2v-12h43.7l21.5-45l21.5,45
			h43.3v12h-37.6L305.8,323.7z M235.7,203.1l-8.5,18.2h17.3L235.7,203.1z"/>
		<path class="st1" d="M328.2,233.5h-15.8v-12h15.8v-38.2h75.4c4.1,0,7.6,0.8,10.5,2.5c3,1.6,5.4,3.7,7.4,6.2c2,2.5,3.4,5.2,4.4,8.1
			c1,2.9,1.4,5.7,1.4,8.4c0,6.8-2.3,12.7-7,17.7c-2.2,2.3-4.7,4.1-7.5,5.4c-2.9,1.3-5.8,2-8.8,2h-64.4v93.1h-11.4V233.5z
			 M415.8,208.4c0-3.3-1.1-6.3-3.4-9c-2.3-2.7-5.2-4.1-8.7-4.1h-64v26.2h64c3.3,0,6.1-1.3,8.5-3.8
			C414.6,215.2,415.8,212.1,415.8,208.4z"/>
		<path class="st1" d="M534.9,183.7h11.4v142.1h-11.4V203.4l-83,122.4h-11.6V183.7h11.6V306L534.9,183.7z"/>
		<path class="st1" d="M581.4,326h-11.6V178.7l67.6,41.4l68-41.4V326h-11.4V199.6L637.4,234l-56-34.4V326z"/>
	</g>
</g>
<g id="Layer_2">
</g>
</svg>
